<svg xmlns="http://www.w3.org/2000/svg" xmlns:xlink="http://www.w3.org/1999/xlink" id="katman_1" x="0" y="0" version="1.0" viewBox="0 0 800 600" style="enable-background:new 0 0 800 600" xml:space="preserve"><path d="M710.5,267h-1.9v-1.4h5.7v1.4h-1.9v4.6h-1.9L710.5,267L710.5,267z"/><path d="M720.4,269.6c0-0.9,0-2.1,0.1-2.8h0c-0.3,1.2-0.6,2.7-1.2,4.8h-1.5c-0.5-2-0.8-3.6-1.1-4.8h0c0,0.7,0.1,1.8,0.1,2.9v1.9H715	v-6h2.7c0.4,1.3,0.7,2.8,0.9,3.8h0c0.2-1.1,0.6-2.4,1-3.8h2.7v6h-1.8V269.6z"/><path d="M187.1,282.8h17.5v9.8h0.5c1.8-7.2,6-10.5,11.3-10.5c1.6,0,3.1,0.3,4.6,0.7v15.8c-1.8-0.6-4.8-0.9-6.7-0.9	c-5.3,0-9.3,3.9-9.3,9.8v26.8h-18V282.8z"/><path d="M258,282.8h18v51.5h-17.1v-9.8h-0.5c-2.2,6.6-7.9,10.5-15.4,10.5c-10.5,0-17.4-8-17.5-19.3v-32.8h18v29	c0,5.1,2.6,8.2,7.2,8.2c4.5,0,7.3-3.1,7.3-8.2L258,282.8L258,282.8z"/><path d="M282.1,308.5c0-18.6,9.6-26.4,19.6-26.4c7.4,0,12.1,4.4,14.1,9.7h0.3v-26.1h18v68.6h-17.9v-8.4h-0.4	c-2.1,5.2-6.9,9.1-14,9.1C291.1,334.9,282.1,326.4,282.1,308.5z M316.4,308.5c0-7.6-3-12.2-8-12.2c-5,0-7.8,4.6-7.8,12.2	c0,7.6,2.9,12.2,7.8,12.2C313.4,320.7,316.4,316,316.4,308.5z"/><path d="M340,308.5c0-18.6,9.6-26.4,19.6-26.4c7.4,0,12.1,4.4,14.1,9.7h0.3v-26.1h18v68.6H374v-8.4h-0.4c-2.1,5.2-6.9,9.1-14,9.1	C349,334.9,340,326.4,340,308.5z M374.3,308.5c0-7.6-3-12.2-8-12.2c-5,0-7.8,4.6-7.8,12.2c0,7.6,2.9,12.2,7.8,12.2	C371.3,320.7,374.3,316,374.3,308.5z"/><path d="M397.5,308.7c0-16,9.9-26.5,25.4-26.5c15.1,0,24.9,10,24.9,26.4v4.3h-32.6v0.8c0,5,3.1,8.6,8.5,8.6c3.7,0,6.6-1.6,7.7-4.6	h16.4c-1.7,10.7-10.6,17.6-24.5,17.6C407.3,335.2,397.5,325.3,397.5,308.7z M431.3,302.6c-0.1-4.4-3.5-7.5-8-7.5c-4.4,0-8,3-8.1,7.5	H431.3z"/><path d="M453.8,282.8h17.5v9.8h0.5c1.8-7.2,6-10.5,11.3-10.5c1.6,0,3.1,0.3,4.6,0.7v15.8c-1.8-0.6-4.8-0.9-6.6-0.9	c-5.3,0-9.3,3.9-9.3,9.8v26.8h-18V282.8z"/><path d="M522.9,297c-1.1-3.5-3.9-6.9-10-6.9c-5.5,0-9.7,2.8-9.7,6.8c0,3.5,2.3,5.4,7.9,6.7l8,1.9c9.2,2.2,13.7,6.7,13.7,13.9	c0,9.3-8.4,15.9-20.5,15.9c-11.2,0-18.6-5.1-20.2-14.2l9.4-1.5c1.2,5.1,4.9,7.6,10.8,7.6c6.4,0,10.5-3.1,10.5-7.1	c0-3.2-2.2-5.4-7.1-6.5l-8.5-1.9c-9.4-2.1-13.7-7-13.7-14.3c0-9.1,8-15.2,19.3-15.2c10.8,0,16.9,5.2,18.9,13.2L522.9,297z"/><path d="M565.4,290.8h-10.3v28.3c0,5.8,2.8,6.9,6,6.9c1.6,0,2.8-0.3,3.4-0.4l1.8,8.3c-1.1,0.4-3.2,1-6.3,1.1	c-7.7,0.2-14.6-4.4-14.6-13.7v-30.4H538v-8h7.3v-12.3h9.8v12.3h10.3L565.4,290.8L565.4,290.8z"/><path d="M572.4,319.7c0-11.7,9.7-14.2,19.2-15.4c9-1.1,12.6-1,12.6-4.7v-0.2c0-5.8-3.2-9.2-9.5-9.2c-6.6,0-10.2,3.5-11.6,7.2	l-9.2-2.1c3.3-9.4,11.6-13.1,20.7-13.1c8,0,19.4,3,19.4,18v34.2h-9.5v-7h-0.4c-1.9,3.9-6.5,8.2-14.8,8.2	C579.8,335.4,572.4,329.8,572.4,319.7z M604.3,315.7v-6.6c-1.4,1.4-8.9,2.3-12.1,2.7c-5.6,0.8-10.3,2.7-10.3,8c0,5,4,7.5,9.5,7.5	C599.5,327.4,604.3,321.8,604.3,315.7z"/><path d="M623.4,308.8c0-15.7,9.1-26.6,23.2-26.6c11.4,0,19.6,6.9,20.7,17.3h-9.5c-1-4.8-4.8-8.8-11-8.8c-8.1,0-13.6,6.9-13.6,18	c0,11.2,5.3,18.3,13.6,18.3c5.6,0,9.8-3.3,11-8.8h9.5c-1.1,10-8.7,17.3-20.6,17.3C632.2,335.3,623.4,324.3,623.4,308.8z"/><path d="M676.4,265.6h9.7v38.9h0.8l19.9-21.8h11.7l-20.3,22.1l21.6,29.4h-12L691,311l-4.9,5v18.3h-9.7V265.6z"/><path d="M130.7,300.3V282h-17.8C112.9,292.1,120.9,300.3,130.7,300.3z"/><path d="M77.4,334.3h26.3c14.9,0,27-12.4,27-27.8H77.4V334.3z"/><path d="M112.9,263.8c0,10.1,7.9,18.3,17.8,18.3v-18.3H112.9z"/><path d="M95.2,263.8c0,10.1,7.9,18.3,17.8,18.3H95.2c0,10.1,7.9,18.3,17.8,18.3V282v-18.3H95.2z"/><path d="M95.2,300.3V282H77.4C77.4,292.1,85.4,300.3,95.2,300.3z"/></svg>